HIERARCHY
ROOT root
{
	OFFSET 0.000000 0.000000 0.000000
	CHANNELS 6 Xposition Yposition Zposition Zrotation Yrotation Xrotation
	JOINT lhip
	{
		OFFSET 0.058581 -0.082280 -0.017664
		CHANNELS 3 Zrotation Yrotation Xrotation
		JOINT lknee
		{
			OFFSET 0.043451 -0.386469 0.008037
			CHANNELS 3 Zrotation Yrotation Xrotation
			JOINT lankle
			{
				OFFSET -0.014790 -0.426874 -0.037428
				CHANNELS 3 Zrotation Yrotation Xrotation
				JOINT ltoe
				{
					OFFSET 0.041054 -0.060286 0.122042
					CHANNELS 3 Zrotation Yrotation Xrotation
					End Site
					{
						OFFSET 0.000000 0.000000 0.000000
					}
				}
			}
		}
	}
	JOINT rhip
	{
		OFFSET -0.060310 -0.090513 -0.013543
		CHANNELS 3 Zrotation Yrotation Xrotation
		JOINT rknee
		{
			OFFSET -0.043257 -0.383688 -0.004843
			CHANNELS 3 Zrotation Yrotation Xrotation
			JOINT rankle
			{
				OFFSET 0.019056 -0.420046 -0.034562
				CHANNELS 3 Zrotation Yrotation Xrotation
				JOINT rtoe
				{
					OFFSET -0.034840 -0.062106 0.130323
					CHANNELS 3 Zrotation Yrotation Xrotation
					End Site
					{
						OFFSET 0.000000 0.000000 0.000000
					}
				}
			}
		}
	}
	JOINT lowerback
	{
		OFFSET 0.004439 0.124404 -0.038385
		CHANNELS 3 Zrotation Yrotation Xrotation
		JOINT upperback
		{
			OFFSET 0.004488 0.137956 0.026820
			CHANNELS 3 Zrotation Yrotation Xrotation
			JOINT chest
			{
				OFFSET -0.002265 0.056032 0.002855
				CHANNELS 3 Zrotation Yrotation Xrotation
				JOINT lowerneck
				{
					OFFSET -0.013390 0.211636 -0.033468
					CHANNELS 3 Zrotation Yrotation Xrotation
					JOINT upperneck
					{
						OFFSET 0.010113 0.088937 0.050410
						CHANNELS 3 Zrotation Yrotation Xrotation
						End Site
						{
							OFFSET 0.000000 0.000000 0.000000
						}
					}
				}
				JOINT lclavicle
				{
					OFFSET 0.071702 0.114000 -0.018898
					CHANNELS 3 Zrotation Yrotation Xrotation
					JOINT lshoulder
					{
						OFFSET 0.122921 0.045205 -0.019046
						CHANNELS 3 Zrotation Yrotation Xrotation
						JOINT lelbow
						{
							OFFSET 0.255332 -0.015649 -0.022946
							CHANNELS 3 Zrotation Yrotation Xrotation
							JOINT lwrist
							{
								OFFSET 0.265709 0.012698 -0.007375
								CHANNELS 3 Zrotation Yrotation Xrotation
								End Site
								{
									OFFSET 0.000000 0.000000 0.000000
								}
							}
						}
					}
				}
				JOINT rclavicle
				{
					OFFSET -0.082954 0.112472 -0.023707
					CHANNELS 3 Zrotation Yrotation Xrotation
					JOINT rshoulder
					{
						OFFSET -0.113228 0.046853 -0.008472
						CHANNELS 3 Zrotation Yrotation Xrotation
						JOINT relbow
						{
							OFFSET -0.260127 -0.014369 -0.031269
							CHANNELS 3 Zrotation Yrotation Xrotation
							JOINT rwrist
							{
								OFFSET -0.269108 0.006794 -0.006027
								CHANNELS 3 Zrotation Yrotation Xrotation
								End Site
								{
									OFFSET 0.000000 0.000000 0.000000
								}
							}
						}
					}
				}
			}
		}
	}
}
MOTION
Frames: 6
Frame Time: 0.033333
0.049565 0.234441 1.000245 93.000245 0.546756 89.831933 3.300223 2.407459 0.986608 0.200099 -7.814762 -1.446114 -1.112365 6.192724 -2.571628 0.000000 -0.000000 0.000000 -2.756649 -4.190700 3.140950 -1.937615 0.424228 -2.732122 4.018276 -5.393603 -2.224992 0.000000 -0.000000 0.000000 0.728807 2.151630 4.360352 -0.835005 -3.254869 3.071269 0.301358 -1.708114 -4.145720 0.409935 -8.423432 -2.565360 7.383784 -4.736381 -0.769724 -23.946680 -7.593883 7.294159 -57.459684 -7.565092 13.082931 5.770991 -19.362884 19.056724 -13.851778 -5.146618 2.929744 17.064636 10.612064 3.931047 61.983471 3.275864 15.618828 0.472537 24.974664 13.366814 29.797470 7.482728 -19.929209 
0.049949 0.233771 1.000301 93.132190 0.738473 89.724340 3.604705 2.652455 1.044799 0.193307 -7.929367 -1.369173 -1.485782 5.904105 -2.427250 0.000000 -0.000000 0.000000 -2.415757 -4.168414 3.344487 -2.120430 0.085552 -2.711262 4.086748 -5.249097 -2.200841 0.000000 -0.000000 0.000000 0.914715 2.022794 4.552548 -0.972212 -3.433332 2.546664 0.364953 -1.728817 -3.965035 0.203652 -8.025640 -2.327698 7.296105 -4.795056 -0.651273 -23.746841 -8.973562 7.762868 -58.209360 -7.686767 13.484604 6.161507 -17.392768 19.868278 -13.604854 -5.758872 3.698319 16.829335 11.363875 4.190983 63.539222 3.296396 15.737350 -0.229657 23.397505 13.895656 28.018729 7.461361 -19.110125 
0.050515 0.233653 1.000176 93.158909 0.760553 89.529768 3.638401 2.477097 1.350357 0.219583 -7.824687 -1.453913 -1.480767 5.950440 -2.471474 0.000000 -0.000000 0.000000 -2.402244 -4.179594 3.568450 -2.102634 0.137132 -2.682684 4.047272 -5.207454 -2.383830 0.000000 -0.000000 0.000000 0.904871 2.116097 4.632776 -0.898155 -3.638743 2.619362 0.229886 -1.770097 -4.035590 0.207650 -7.456936 -2.376774 7.121859 -5.066140 -0.683368 -23.678593 -9.361028 8.048078 -58.234527 -7.752195 13.950017 5.399883 -17.746792 21.720052 -13.781829 -6.150016 3.449472 17.016361 11.506853 4.314860 64.743978 3.395003 16.065456 -1.154919 22.340020 13.973363 26.676335 6.792396 -17.789085 
0.051592 0.233172 1.000107 92.876551 0.783098 89.474023 3.611619 2.360167 1.624650 0.338643 -7.556286 -1.623606 -1.421809 6.004894 -2.510733 0.000000 -0.000000 0.000000 -2.371589 -3.878666 3.567927 -2.118097 0.062390 -2.448821 4.204126 -5.201839 -2.384910 0.000000 -0.000000 0.000000 0.724347 2.200070 4.359232 -0.717107 -3.590855 2.804167 0.066288 -1.798884 -4.006509 0.489227 -6.735685 -2.556005 6.724722 -5.195524 -0.710933 -23.629658 -8.712875 8.050972 -57.999855 -7.780596 14.188685 4.079983 -20.211402 24.026049 -16.563157 -6.199606 4.408705 17.542063 10.763475 4.141386 65.479858 3.708192 15.648591 -3.289777 21.645512 11.927629 29.679708 5.773870 -17.081763 
0.051787 0.232969 1.000041 92.878520 0.833189 89.484862 3.643566 2.291669 1.591366 0.359641 -7.476728 -1.568636 -1.373776 5.974482 -2.544484 0.000000 -0.000000 0.000000 -2.327666 -3.956060 3.566003 -2.114099 0.094911 -2.488815 4.274789 -5.184498 -2.333141 0.000000 -0.000000 0.000000 0.634128 2.181001 4.279477 -0.603823 -3.660036 2.785217 0.039374 -1.856905 -3.875927 0.648950 -6.430654 -2.531706 6.586248 -5.164517 -1.023348 -23.526145 -8.001924 7.859166 -57.945979 -7.755571 14.483441 3.047328 -22.203085 25.831288 -17.000495 -5.934340 4.338967 17.655093 10.042003 3.827813 65.458901 3.991071 15.366605 -3.865270 21.481070 11.246082 30.087614 5.336154 -16.737437 
0.052194 0.232627 1.000010 92.810368 0.882302 89.465816 3.730672 2.282085 1.649858 0.303650 -7.425831 -1.587377 -1.414065 5.971745 -2.604853 0.000000 -0.000000 0.000000 -2.320744 -4.098697 3.628583 -2.061396 0.220259 -2.555281 4.310684 -5.060454 -2.333812 0.000000 -0.000000 0.000000 0.509637 2.138487 4.132025 -0.536868 -3.724456 2.792538 0.052256 -1.941324 -3.664941 0.757516 -6.006472 -2.539986 6.457799 -5.045654 -1.271641 -23.372447 -7.407315 7.815288 -58.089857 -7.572382 14.958531 2.065279 -24.501749 27.100162 -15.876513 -6.121841 4.478973 17.673462 9.308007 3.613206 65.054168 4.407546 15.103403 -3.615084 21.561780 11.301921 28.870833 5.375717 -16.292086 
